<svg width="22" height="15" viewBox="0 0 22 15" fill="none" xmlns="http://www.w3.org/2000/svg">
<g clip-path="url(#clip0_9_224)">
<path d="M18.492 6.56265H12.6451C12.1134 6.56265 11.6035 6.41449 11.2276 6.15077C10.8516 5.88705 10.6404 5.52936 10.6404 5.1564V1.05484C10.6404 1.02376 10.6228 0.993953 10.5915 0.971976C10.5602 0.949999 10.5177 0.937653 10.4734 0.937653H6.63112C5.92223 0.937653 5.24238 1.1352 4.74112 1.48683C4.23986 1.83846 3.95825 2.31537 3.95825 2.81265V12.1876C3.95825 12.6849 4.23986 13.1618 4.74112 13.5135C5.24238 13.8651 5.92223 14.0626 6.63112 14.0626H15.9862C16.6951 14.0626 17.3749 13.8651 17.8762 13.5135C18.3774 13.1618 18.6591 12.6849 18.6591 12.1876V6.67984C18.6591 6.64876 18.6415 6.61895 18.6101 6.59697C18.5788 6.575 18.5363 6.56265 18.492 6.56265ZM14.6497 11.2501H7.96756C7.79034 11.2501 7.62037 11.2008 7.49506 11.1129C7.36974 11.0249 7.29934 10.9057 7.29934 10.7814C7.29934 10.6571 7.36974 10.5378 7.49506 10.4499C7.62037 10.362 7.79034 10.3126 7.96756 10.3126H14.6497C14.827 10.3126 14.9969 10.362 15.1222 10.4499C15.2476 10.5378 15.318 10.6571 15.318 10.7814C15.318 10.9057 15.2476 11.0249 15.1222 11.1129C14.9969 11.2008 14.827 11.2501 14.6497 11.2501ZM14.6497 8.9064H7.96756C7.79034 8.9064 7.62037 8.85701 7.49506 8.76911C7.36974 8.6812 7.29934 8.56197 7.29934 8.43765C7.29934 8.31333 7.36974 8.1941 7.49506 8.10619C7.62037 8.01829 7.79034 7.9689 7.96756 7.9689H14.6497C14.827 7.9689 14.9969 8.01829 15.1222 8.10619C15.2476 8.1941 15.318 8.31333 15.318 8.43765C15.318 8.56197 15.2476 8.6812 15.1222 8.76911C14.9969 8.85701 14.827 8.9064 14.6497 8.9064Z" fill="#2D3748"/>
<path d="M18.1252 5.526L12.1192 1.31282C12.1075 1.30467 12.0927 1.29913 12.0765 1.29689C12.0604 1.29465 12.0436 1.29581 12.0284 1.30022C12.0132 1.30464 12.0002 1.31211 11.991 1.3217C11.9818 1.33129 11.9769 1.34257 11.9768 1.35412V5.15715C11.9768 5.28147 12.0472 5.4007 12.1725 5.48861C12.2978 5.57652 12.4678 5.6259 12.645 5.6259H18.0664C18.0828 5.62585 18.0989 5.62239 18.1126 5.61595C18.1263 5.60951 18.1369 5.60037 18.1432 5.5897C18.1495 5.57902 18.1511 5.56728 18.148 5.55594C18.1448 5.54461 18.1369 5.53419 18.1252 5.526V5.526Z" fill="#2D3748"/>
</g>
<defs>
<clipPath id="clip0_9_224">
<rect width="21.383" height="15" fill="white" transform="translate(0.617188)"/>
</clipPath>
</defs>
</svg>
