<svg width="16" height="16" viewBox="0 0 16 16" fill="none" xmlns="http://www.w3.org/2000/svg">
<path d="M13.6291 12.5958L10.8726 9.83929C11.5362 8.9558 11.8945 7.88041 11.8933 6.77542C11.8933 3.95297 9.59697 1.65668 6.77451 1.65668C3.95205 1.65668 1.65576 3.95297 1.65576 6.77542C1.65576 9.59788 3.95205 11.8942 6.77451 11.8942C7.87949 11.8954 8.95488 11.5371 9.83838 10.8735L12.5949 13.63C12.7345 13.7547 12.9164 13.8213 13.1035 13.8161C13.2906 13.8109 13.4686 13.7342 13.6009 13.6019C13.7333 13.4695 13.8099 13.2915 13.8152 13.1044C13.8204 12.9174 13.7538 12.7354 13.6291 12.5958ZM3.11826 6.77542C3.11826 6.05229 3.3327 5.34539 3.73445 4.74412C4.1362 4.14286 4.70723 3.67422 5.37532 3.39749C6.04342 3.12076 6.77857 3.04835 7.48781 3.18943C8.19705 3.33051 8.84853 3.67873 9.35987 4.19007C9.8712 4.7014 10.2194 5.35288 10.3605 6.06213C10.5016 6.77137 10.4292 7.50652 10.1524 8.17461C9.87571 8.8427 9.40708 9.41373 8.80581 9.81548C8.20455 10.2172 7.49765 10.4317 6.77451 10.4317C5.80517 10.4305 4.87586 10.0449 4.19044 9.3595C3.50501 8.67407 3.11942 7.74477 3.11826 6.77542Z" fill="#2D3748"/>
</svg>
